<svg width="203" height="24" viewBox="0 0 203 24" fill="none" xmlns="http://www.w3.org/2000/svg">
<path d="M34.2007 8.01712C34.2007 8.39618 34.4471 8.7089 34.9398 8.95529C35.4516 9.18273 36.0675 9.39121 36.7878 9.58074C37.508 9.75132 38.2282 9.97875 38.9484 10.263C39.6686 10.5284 40.2751 10.9833 40.7679 11.6277C41.2796 12.2721 41.5355 13.0776 41.5355 14.0442C41.5355 15.5036 40.9859 16.6313 39.8866 17.4273C38.8063 18.2044 37.4511 18.5929 35.8212 18.5929C32.9024 18.5929 30.9123 17.4652 29.851 15.2098L33.0351 13.4187C33.452 14.6507 34.3807 15.2666 35.8212 15.2666C37.1289 15.2666 37.7828 14.8591 37.7828 14.0442C37.7828 13.6651 37.5269 13.3619 37.0152 13.1344C36.5224 12.888 35.9159 12.6701 35.1957 12.4805C34.4755 12.291 33.7553 12.0541 33.0351 11.7698C32.3149 11.4855 31.6989 11.0401 31.1872 10.4336C30.6944 9.80818 30.448 9.0311 30.448 8.10241C30.448 6.69988 30.9597 5.60061 31.9832 4.80459C33.0256 3.98961 34.3144 3.58212 35.8496 3.58212C37.0057 3.58212 38.0576 3.84746 39.0053 4.37814C39.9529 4.88987 40.7016 5.62904 41.2512 6.59564L38.124 8.30141C37.6691 7.33481 36.911 6.85151 35.8496 6.85151C35.3758 6.85151 34.9778 6.95575 34.6556 7.16423C34.3523 7.37272 34.2007 7.65701 34.2007 8.01712Z" fill="#353535"/>
<path d="M54.5029 3.98013H58.1703V18.1949H54.5029V16.5175C53.4036 17.9011 51.859 18.5929 49.8689 18.5929C47.9736 18.5929 46.3436 17.8727 44.979 16.4322C43.6333 14.9729 42.9605 13.1913 42.9605 11.0875C42.9605 8.98372 43.6333 7.21161 44.979 5.77119C46.3436 4.31181 47.9736 3.58212 49.8689 3.58212C51.859 3.58212 53.4036 4.2739 54.5029 5.65747V3.98013ZM47.7367 13.9873C48.4758 14.7265 49.414 15.0961 50.5512 15.0961C51.6884 15.0961 52.6265 14.7265 53.3657 13.9873C54.1238 13.2292 54.5029 12.2626 54.5029 11.0875C54.5029 9.91242 54.1238 8.95529 53.3657 8.21612C52.6265 7.458 51.6884 7.07894 50.5512 7.07894C49.414 7.07894 48.4758 7.458 47.7367 8.21612C46.9975 8.95529 46.6279 9.91242 46.6279 11.0875C46.6279 12.2626 46.9975 13.2292 47.7367 13.9873Z" fill="#353535"/>
<path d="M65.1633 6.42507C65.5044 5.51532 66.0636 4.83301 66.8406 4.37814C67.6366 3.92327 68.518 3.69583 69.4846 3.69583V7.78968C68.3663 7.65701 67.3618 7.88445 66.471 8.47199C65.5992 9.05953 65.1633 10.0356 65.1633 11.4002V18.1949H61.4959V3.98013H65.1633V6.42507Z" fill="#353535"/>
<path d="M81.9051 3.98013H85.5725V18.1949H81.9051V16.5175C80.8059 17.9011 79.2612 18.5929 77.2711 18.5929C75.3758 18.5929 73.7459 17.8727 72.3813 16.4322C71.0356 14.9729 70.3628 13.1913 70.3628 11.0875C70.3628 8.98372 71.0356 7.21161 72.3813 5.77119C73.7459 4.31181 75.3758 3.58212 77.2711 3.58212C79.2612 3.58212 80.8059 4.2739 81.9051 5.65747V3.98013ZM75.1389 13.9873C75.8781 14.7265 76.8163 15.0961 77.9534 15.0961C79.0906 15.0961 80.0288 14.7265 80.768 13.9873C81.5261 13.2292 81.9051 12.2626 81.9051 11.0875C81.9051 9.91242 81.5261 8.95529 80.768 8.21612C80.0288 7.458 79.0906 7.07894 77.9534 7.07894C76.8163 7.07894 75.8781 7.458 75.1389 8.21612C74.3998 8.95529 74.0302 9.91242 74.0302 11.0875C74.0302 12.2626 74.3998 13.2292 75.1389 13.9873Z" fill="#353535"/>
<path d="M104.136 7.50539H100.924V13.4187C100.924 13.9115 101.047 14.2716 101.293 14.499C101.54 14.7265 101.9 14.8591 102.374 14.8971C102.848 14.916 103.435 14.9065 104.136 14.8686V18.1949C101.616 18.4792 99.834 18.2423 98.7916 17.4841C97.7681 16.726 97.2564 15.3709 97.2564 13.4187V7.50539H94.783V3.98013H97.2564V1.10875L100.924 0V3.98013H104.136V7.50539Z" fill="#353535"/>
<path d="M117.081 3.98013H120.748V18.1949H117.081V16.5175C115.982 17.9011 114.437 18.5929 112.447 18.5929C110.552 18.5929 108.922 17.8727 107.557 16.4322C106.212 14.9729 105.539 13.1913 105.539 11.0875C105.539 8.98372 106.212 7.21161 107.557 5.77119C108.922 4.31181 110.552 3.58212 112.447 3.58212C114.437 3.58212 115.982 4.2739 117.081 5.65747V3.98013ZM110.315 13.9873C111.054 14.7265 111.992 15.0961 113.129 15.0961C114.267 15.0961 115.205 14.7265 115.944 13.9873C116.702 13.2292 117.081 12.2626 117.081 11.0875C117.081 9.91242 116.702 8.95529 115.944 8.21612C115.205 7.458 114.267 7.07894 113.129 7.07894C111.992 7.07894 111.054 7.458 110.315 8.21612C109.576 8.95529 109.206 9.91242 109.206 11.0875C109.206 12.2626 109.576 13.2292 110.315 13.9873Z" fill="#353535"/>
<path d="M132.347 3.58212C134.261 3.58212 135.891 4.31181 137.237 5.77119C138.602 7.21161 139.284 8.98372 139.284 11.0875C139.284 13.1913 138.602 14.9729 137.237 16.4322C135.891 17.8727 134.261 18.5929 132.347 18.5929C130.357 18.5929 128.822 17.9011 127.741 16.5175V23.8808H124.074V3.98013H127.741V5.65747C128.822 4.2739 130.357 3.58212 132.347 3.58212ZM128.85 13.9873C129.589 14.7265 130.528 15.0961 131.665 15.0961C132.802 15.0961 133.74 14.7265 134.479 13.9873C135.237 13.2292 135.616 12.2626 135.616 11.0875C135.616 9.91242 135.237 8.95529 134.479 8.21612C133.74 7.458 132.802 7.07894 131.665 7.07894C130.528 7.07894 129.589 7.458 128.85 8.21612C128.111 8.95529 127.741 9.91242 127.741 11.0875C127.741 12.2626 128.111 13.2292 128.85 13.9873Z" fill="#353535"/>
<path d="M151.252 3.98013H154.919V18.1949H151.252V16.6028C150.361 17.9295 148.949 18.5929 147.016 18.5929C145.462 18.5929 144.173 18.0717 143.15 17.0293C142.145 15.9869 141.643 14.5464 141.643 12.708V3.98013H145.31V12.2531C145.31 13.2008 145.566 13.9305 146.078 14.4422C146.59 14.935 147.272 15.1814 148.125 15.1814C149.072 15.1814 149.831 14.8876 150.399 14.3C150.968 13.7125 151.252 12.8312 151.252 11.6561V3.98013Z" fill="#353535"/>
<path d="M161.55 8.01712C161.55 8.39618 161.797 8.7089 162.29 8.95529C162.801 9.18273 163.417 9.39121 164.137 9.58074C164.858 9.75132 165.578 9.97875 166.298 10.263C167.018 10.5284 167.625 10.9833 168.118 11.6277C168.629 12.2721 168.885 13.0776 168.885 14.0442C168.885 15.5036 168.336 16.6313 167.236 17.4273C166.156 18.2044 164.801 18.5929 163.171 18.5929C160.252 18.5929 158.262 17.4652 157.201 15.2098L160.385 13.4187C160.802 14.6507 161.73 15.2666 163.171 15.2666C164.479 15.2666 165.132 14.8591 165.132 14.0442C165.132 13.6651 164.877 13.3619 164.365 13.1344C163.872 12.888 163.266 12.6701 162.545 12.4805C161.825 12.291 161.105 12.0541 160.385 11.7698C159.665 11.4855 159.049 11.0401 158.537 10.4336C158.044 9.80818 157.798 9.0311 157.798 8.10241C157.798 6.69988 158.309 5.60061 159.333 4.80459C160.375 3.98961 161.664 3.58212 163.199 3.58212C164.355 3.58212 165.407 3.84746 166.355 4.37814C167.303 4.88987 168.051 5.62904 168.601 6.59564L165.474 8.30141C165.019 7.33481 164.261 6.85151 163.199 6.85151C162.725 6.85151 162.327 6.95575 162.005 7.16423C161.702 7.37272 161.55 7.65701 161.55 8.01712Z" fill="#353535"/>
<path d="M183.16 16.4322C181.701 17.8727 179.919 18.5929 177.816 18.5929C175.712 18.5929 173.93 17.8727 172.471 16.4322C171.03 14.9729 170.31 13.1913 170.31 11.0875C170.31 8.98372 171.03 7.21161 172.471 5.77119C173.93 4.31181 175.712 3.58212 177.816 3.58212C179.919 3.58212 181.701 4.31181 183.16 5.77119C184.62 7.21161 185.349 8.98372 185.349 11.0875C185.349 13.1913 184.62 14.9729 183.16 16.4322ZM175.058 13.902C175.797 14.6412 176.716 15.0108 177.816 15.0108C178.915 15.0108 179.834 14.6412 180.573 13.902C181.312 13.1629 181.682 12.2247 181.682 11.0875C181.682 9.95032 181.312 9.01215 180.573 8.27298C179.834 7.53382 178.915 7.16423 177.816 7.16423C176.716 7.16423 175.797 7.53382 175.058 8.27298C174.338 9.01215 173.978 9.95032 173.978 11.0875C173.978 12.2247 174.338 13.1629 175.058 13.902Z" fill="#353535"/>
<path d="M198.733 3.98013H202.4V18.1949H198.733V16.5175C197.633 17.9011 196.089 18.5929 194.099 18.5929C192.203 18.5929 190.573 17.8727 189.209 16.4322C187.863 14.9729 187.19 13.1913 187.19 11.0875C187.19 8.98372 187.863 7.21161 189.209 5.77119C190.573 4.31181 192.203 3.58212 194.099 3.58212C196.089 3.58212 197.633 4.2739 198.733 5.65747V3.98013ZM191.966 13.9873C192.706 14.7265 193.644 15.0961 194.781 15.0961C195.918 15.0961 196.856 14.7265 197.595 13.9873C198.354 13.2292 198.733 12.2626 198.733 11.0875C198.733 9.91242 198.354 8.95529 197.595 8.21612C196.856 7.458 195.918 7.07894 194.781 7.07894C193.644 7.07894 192.706 7.458 191.966 8.21612C191.227 8.95529 190.858 9.91242 190.858 11.0875C190.858 12.2626 191.227 13.2292 191.966 13.9873Z" fill="#353535"/>
<path d="M9.95032 0L4.00777 5.97019H0V4.00777C0 1.79434 1.79434 0 4.00777 0H9.95032Z" fill="#353535"/>
<path d="M17.9106 5.8766H13.2644V15.7292C13.2644 16.5502 13.4425 17.1502 13.7989 17.5292C14.1552 17.9081 14.676 18.1291 15.3613 18.1923C16.0466 18.2239 16.8964 18.2081 17.9106 18.1449V23.687C14.2649 24.1607 11.6882 23.7659 10.1806 22.5028C8.70037 21.2396 7.96026 18.9818 7.96026 15.7292V5.8766V5.88169L13.2623 0L13.2644 0.00295888H17.9106V5.8766Z" fill="#353535"/>
</svg>
