<svg width="40" height="40" viewBox="0 0 40 40" fill="none" xmlns="http://www.w3.org/2000/svg">
<rect width="40" height="40" rx="20" fill="#81B29A"/>
<path d="M18.9503 9L13.0078 14.9702H9V13.0078C9 10.7943 10.7943 9 13.0078 9H18.9503Z" fill="white"/>
<path d="M26.9106 14.8766H22.2644V24.7292C22.2644 25.5502 22.4425 26.1502 22.7989 26.5292C23.1552 26.9081 23.676 27.1291 24.3613 27.1923C25.0466 27.2239 25.8964 27.2081 26.9106 27.1449V32.687C23.2649 33.1607 20.6882 32.7659 19.1806 31.5028C17.7004 30.2396 16.9603 27.9818 16.9603 24.7292V14.8766V14.8817L22.2623 9L22.2644 9.00296H26.9106V14.8766Z" fill="white"/>
</svg>
