<?xml version="1.0" encoding="UTF-8"?>
<svg id="Layer_1" data-name="Layer 1" xmlns="http://www.w3.org/2000/svg" viewBox="0 0 139.43 142.9">
  <defs>
    <style>
      .cls-1 {
        fill: #0470c7;
      }

      .cls-2 {
        fill: #d9d9d9;
      }

      .cls-3 {
        fill: #3f232f;
      }

      .cls-4 {
        fill: #3b2140;
      }

      .cls-5 {
        fill: #3d2035;
      }

      .cls-6 {
        fill: #f3b29b;
      }

      .cls-6, .cls-7, .cls-8 {
        fill-rule: evenodd;
      }

      .cls-7 {
        fill: #ea9283;
      }

      .cls-8 {
        fill: #e99486;
      }
    </style>
  </defs>
  <path class="cls-6" d="M83.5,87.4c-.17,4,.6,14.6,3,17l46,19.5c3,4,8.5,13.4,6.5,19H0c1.17-5.83,4.2-17.8,7-19,.51-.22,1.92-.82,3.95-1.68,9.01-3.83,30.4-12.92,41.55-17.82,2.5-3,4.3-12.2,3.5-19l27.5,2Z"/>
  <path class="cls-4" d="M55.5,96.4c1-5.5,.5-8.5,.5-11h27v3.5c-4.5,7.5-19.33,8-27.5,7.5Z"/>
  <path class="cls-1" d="M7,123.9c-2.8,1.2-5.83,13.17-7,19H139c2-5.6-3.5-15-6.5-19l-42.5-18s-2,18-20.5,18-21.5-17.5-21.5-17.5c-13.67,6-38.2,16.3-41,17.5Z"/>
  <path class="cls-6" d="M70.5,15.4c-15.7,0-28.14,13.27-27.12,28.94l.2,3.02-1.07-.96c-5.33-3-15.1-5.3-11.5,9.5,2.47,10.16,8.7,13.52,14.09,14.09,1.59,12.72,12.43,22.41,25.41,22.41s23.82-9.69,25.41-22.41c5.39-.57,11.62-3.92,14.09-14.09,3.6-14.8-6.17-12.5-11.5-9.5l-1.07,.96,.2-3.02c1.02-15.67-11.42-28.94-27.12-28.94Z"/>
  <path class="cls-8" d="M102.72,51.75c1.03-1.13,2.21-2.15,2.97-2.74l.61,.79c-.73,.57-1.86,1.55-2.85,2.63-.5,.54-.95,1.1-1.3,1.63-.19,.3-.35,.58-.47,.84h2.81v1h-4.11l.12-.6c.12-.59,.42-1.2,.81-1.79,.39-.59,.88-1.19,1.4-1.76Z"/>
  <path class="cls-8" d="M37.1,52.1c-.81-1.11-1.8-2.19-2.45-2.84l.71-.71c.68,.68,1.7,1.8,2.55,2.96,.43,.58,.82,1.18,1.11,1.74,.28,.55,.49,1.13,.49,1.65v.42l-3.42,.57-.16-.99,2.52-.42c-.06-.22-.17-.49-.32-.79-.25-.5-.61-1.05-1.02-1.61Z"/>
  <path class="cls-7" d="M71.36,81.46c-1.46-.15-2.8-.68-3.6-1.12l.49-.87c.7,.39,1.91,.86,3.22,1,1.31,.14,2.66-.07,3.72-.95l.64,.77c-1.34,1.12-2.99,1.33-4.46,1.18Z"/>
  <path class="cls-7" d="M71.71,76.63c-3.36,0-6.77-.91-8.9-1.76l.37-.93c2.04,.82,5.33,1.7,8.53,1.69,3.21,0,6.2-.9,7.87-3.5l.84,.54c-1.93,3.01-5.36,3.95-8.71,3.95Z"/>
  <path class="cls-7" d="M68.94,62.61c.23-2.46,.48-5.32,.56-7.23l1,.04c-.08,1.93-.33,4.82-.56,7.27-.08,.85-.16,1.65-.22,2.35-.03,.31-.06,.6-.08,.86-.04,.42-.07,.78-.1,1.04-.01,.13-.02,.24-.03,.32,0,.04,0,.07,0,.1v.02s.01,.03,.03,.05c.04,.06,.11,.14,.22,.23,.21,.18,.53,.36,.93,.45,.76,.18,1.83,.06,2.97-1.07l.71,.71c-1.37,1.37-2.79,1.6-3.91,1.34-.54-.13-1-.38-1.34-.66-.17-.14-.31-.29-.42-.45-.1-.15-.19-.35-.19-.58,0-.16,.06-.77,.14-1.59,.03-.26,.05-.55,.08-.86,.07-.69,.14-1.49,.22-2.34Z"/>
  <path class="cls-3" d="M61.5,52.4c0,2.21-.9,4-2,4s-2-1.79-2-4,.9-4,2-4,2,1.79,2,4Z"/>
  <path class="cls-3" d="M84.5,52.4c0,2.21-.9,4-2,4s-2-1.79-2-4,.9-4,2-4,2,1.79,2,4Z"/>
  <path class="cls-5" d="M80,41.9c0,1.53,1,1.75,2.5,2,3.5,.58,5,2.5,6,2.5s2.5-.5,2-2.5c-.5-2-6-4-8-4-1,0-2.5,0-2.5,2Z"/>
  <path class="cls-5" d="M63.1,41.9c0,1.53-1,1.75-2.5,2-3.5,.58-5,2.5-6,2.5s-2.5-.5-2-2.5c.5-2,6-4,8-4,1,0,2.5,0,2.5,2Z"/>
  <path class="cls-5" d="M44.48,52.24l.04,.16c4-3.5,2.96-15.51,4-20,1.5-6.5,6.5-6.5,18.5,0,12,6.5,22.5-4.5,22.5-2.5,0,1.6,3.33,5.67,5,7.5,.67,6,2.2,17.4,3,15,1-3,1.5-11,6-15,4.5-4,.5-11.5-3-15.5-3.5-4,6.57-9.09-1.5-18-9.5-10.5-32,3.5-35.5,3.5S57.52,.91,50.02,1.4c-11.02,.73-5.5,10.5-5.5,13.5s-2,1.5-7,2.5c-4,.8-3.67,5.83-2,8.5-7.5,11.5,4,15,5.5,16.5,1.18,1.18,2.62,6.65,3.46,9.84Z"/>
  <path class="cls-2" d="M72,130.4c0,1.1-.9,2-2,2s-2-.9-2-2,.9-2,2-2,2,.9,2,2Z"/>
  <path class="cls-2" d="M72,138.4c0,1.1-.9,2-2,2s-2-.9-2-2,.9-2,2-2,2,.9,2,2Z"/>
</svg>