<?xml version="1.0" encoding="UTF-8"?>
<svg id="Layer_1" data-name="Layer 1" xmlns="http://www.w3.org/2000/svg" viewBox="0 0 139.43 143.9">
  <defs>
    <style>
      .cls-1, .cls-2 {
        fill: #f3b29b;
      }

      .cls-3 {
        fill: #3f232f;
      }

      .cls-4 {
        fill: #3b2140;
      }

      .cls-5 {
        fill: #3d2035;
      }

      .cls-2, .cls-6, .cls-7, .cls-8, .cls-9 {
        fill-rule: evenodd;
      }

      .cls-6 {
        fill: #705c5a;
      }

      .cls-7 {
        fill: #ea9283;
      }

      .cls-8 {
        fill: #e99486;
      }
    </style>
  </defs>
  <path d="M103.78,33.77c1.89-8.27,.3-12.15-.73-13.06-2.78,.91-8.63,3.81-9.79,8.16-1.16,4.35,1.82,17.13,3.99,24.62l2.25-5,2-2c.42-2.6,.39-4.46,2.28-12.73Z"/>
  <path d="M36.98,33.77c-1.89-8.27-.3-12.15,.73-13.06,2.78,.91,8.63,3.81,9.79,8.16,1.16,4.35-2.9,20.43-5.08,27.92l-.73-3.99-1.09-.91c-.42-2.6-1.74-9.86-3.63-18.13Z"/>
  <path class="cls-1" d="M86.5,105.4c-2.4-2.4-3.17-13-3-17l-27.5-2c.8,6.8-1,16-3.5,19,21.2,14,31.5,6.67,34,0Z"/>
  <path class="cls-4" d="M55.5,97.4c1-5.5,.5-8.5,.5-11h27v3.5c-4.5,7.5-19.33,8-27.5,7.5Z"/>
  <path class="cls-2" d="M70.5,16.4c-15.7,0-28.14,13.27-27.12,28.94l.2,3.02-1.07-.96c-5.33-3-15.1-5.3-11.5,9.5,2.47,10.16,8.7,13.52,14.09,14.09,1.59,12.72,12.43,22.41,25.41,22.41s23.82-9.69,25.41-22.41c5.39-.57,11.62-3.92,14.09-14.09,3.6-14.8-6.17-12.5-11.5-9.5l-1.07,.96,.2-3.02c1.02-15.67-11.42-28.94-27.12-28.94Z"/>
  <path class="cls-8" d="M102.72,52.75c1.03-1.13,2.21-2.15,2.97-2.74l.61,.79c-.73,.57-1.86,1.55-2.85,2.63-.5,.54-.95,1.1-1.3,1.63-.19,.3-.35,.58-.47,.84h2.81v1h-4.11l.12-.6c.12-.59,.42-1.2,.81-1.79,.39-.59,.88-1.19,1.4-1.76Z"/>
  <path class="cls-8" d="M37.1,53.1c-.81-1.11-1.8-2.19-2.45-2.84l.71-.71c.68,.68,1.7,1.8,2.55,2.96,.43,.58,.82,1.18,1.11,1.74,.28,.55,.49,1.13,.49,1.65v.42l-3.42,.57-.16-.99,2.52-.42c-.06-.22-.17-.49-.32-.79-.25-.5-.61-1.05-1.02-1.61Z"/>
  <path class="cls-7" d="M71.36,82.46c-1.46-.15-2.8-.68-3.6-1.12l.49-.87c.7,.39,1.91,.86,3.22,1,1.31,.14,2.66-.07,3.72-.95l.64,.77c-1.34,1.12-2.99,1.33-4.46,1.18Z"/>
  <path class="cls-7" d="M71.71,77.63c-3.36,0-6.77-.91-8.9-1.76l.37-.93c2.04,.82,5.33,1.7,8.53,1.69,3.21,0,6.2-.9,7.87-3.5l.84,.54c-1.93,3.01-5.36,3.95-8.71,3.95Z"/>
  <path class="cls-7" d="M68.94,63.61c.23-2.46,.48-5.32,.56-7.23l1,.04c-.08,1.93-.33,4.82-.56,7.27-.08,.85-.16,1.65-.22,2.35-.03,.31-.06,.6-.08,.86-.04,.42-.07,.78-.1,1.04-.01,.13-.02,.24-.03,.32,0,.04,0,.07,0,.1v.02s.01,.03,.03,.05c.04,.06,.11,.14,.22,.23,.21,.18,.53,.36,.93,.45,.76,.18,1.83,.06,2.97-1.07l.71,.71c-1.37,1.37-2.79,1.6-3.91,1.34-.54-.13-1-.38-1.34-.66-.17-.14-.31-.29-.42-.45-.1-.15-.19-.35-.19-.58,0-.16,.06-.77,.14-1.59,.03-.26,.05-.55,.08-.86,.07-.69,.14-1.49,.22-2.34Z"/>
  <path class="cls-3" d="M61.5,53.4c0,2.21-.9,4-2,4s-2-1.79-2-4,.9-4,2-4,2,1.79,2,4Z"/>
  <path class="cls-3" d="M84.5,53.4c0,2.21-.9,4-2,4s-2-1.79-2-4,.9-4,2-4,2,1.79,2,4Z"/>
  <path class="cls-5" d="M80,42.9c0,1.53,1,1.75,2.5,2,3.5,.58,5,2.5,6,2.5s2.5-.5,2-2.5c-.5-2-6-4-8-4-1,0-2.5,0-2.5,2Z"/>
  <path class="cls-5" d="M63.1,42.9c0,1.53-1,1.75-2.5,2-3.5,.58-5,2.5-6,2.5s-2.5-.5-2-2.5c.5-2,6-4,8-4,1,0,2.5,0,2.5,2Z"/>
  <path class="cls-9" d="M42.78,5.85c16.14-11.01,33.81-4.28,43.51,2.35l-1.81-5.43,.3,.19-.12-.19c7.4,1.6,11.67,11.66,12.87,16.5,4.35-.91,6.16,.73,7.07,5.62,.72,3.92-1.29,13.74-3.11,21.11l-2.5,.5-3.5,7c-.52-1.11-.94-4.92-1.44-9.42-.47-4.28-1.02-9.2-1.78-13.03-7.64,4.51-20.09,4.21-27.98,4.01-.35,0-.7-.02-1.03-.02-2.84-.07-9.45-1.85-15.56-4.85,.44,5.21-2.22,16.47-4.2,23.31l-2-7.5-1.5-1.5c-.17-1.05-.39-1.66-.72-2.55-.48-1.31-1.19-3.26-2.31-8.17-1.41-6.19-.88-9.92-.09-11.78-3.28-4.63-2.84-10.18,5.89-16.14Z"/>
  <path class="cls-6" d="M53.5,99.5h32c.5,.5,1.5,1.9,1.5,3.5,0,.76,.07,1.46,.14,2.04,.02,.24,.05,.45,.06,.66l45.3,19.2c3,4,8.5,13.4,6.5,19H0c1.17-5.83,4.2-17.8,7-19,.51-.22,1.92-.82,3.95-1.68,8.81-3.75,29.44-12.51,40.78-17.48-.28-2.18,.13-5.26,1.77-6.24Z"/>
</svg>