<?xml version="1.0" encoding="UTF-8"?>
<svg id="Layer_1" data-name="Layer 1" xmlns="http://www.w3.org/2000/svg" viewBox="0 0 138.84 154.65">
  <defs>
    <style>
      .cls-1 {
        fill: #674653;
      }

      .cls-2 {
        fill: #e89586;
      }

      .cls-3 {
        fill: #e89486;
      }

      .cls-4 {
        fill: #e99383;
      }

      .cls-5 {
        fill: #e99384;
      }

      .cls-6 {
        fill: #e99283;
      }

      .cls-7 {
        fill: #f2b19a;
      }

      .cls-8 {
        fill: #fefefe;
      }

      .cls-9 {
        fill: #938483;
      }

      .cls-10 {
        fill: #402430;
      }

      .cls-11 {
        fill: #412438;
      }

      .cls-12 {
        fill: #3e2136;
      }

      .cls-13 {
        fill: #705c5a;
      }

      .cls-14 {
        fill: #3b2140;
      }

      .cls-15 {
        fill: #3d2035;
      }

      .cls-16 {
        fill: #4d3042;
      }
    </style>
  </defs>
  <path class="cls-9" d="M0,154.65c.03-.37-.06-.78,.27-1.07,1.37,.17,2.76,.2,4.14,.2H135c1.1,0,2.22-.18,3.27,.31,.22,.13,.28,.32,.19,.56H0Z"/>
  <path class="cls-13" d="M138.84,153c-.13,.44-.26,.88-.39,1.31H2.02c-.65,0-1.52,.35-1.75-.73,.97-5.11,2.31-10.11,4.38-14.89,.78-1.8,1.99-3,3.88-3.79,12.24-5.16,24.44-10.43,36.65-15.67,.4-.17,.83-.29,1.24-.44,.61,.31,.72,.94,.98,1.48,2.48,5.13,5.52,9.8,10.09,13.38,7.12,5.58,17.52,5.35,24.61-.81,4.05-3.52,6.98-7.8,9.42-12.5,.3-.57,.37-1.32,1.13-1.54,9.39,4,18.78,8,28.17,12,3.4,1.45,6.79,2.91,10.19,4.37,.51,.22,1,.42,1.34,.92,3.05,4.45,5.68,9.1,6.49,14.55v2.35h0Z"/>
  <path class="cls-7" d="M92.66,118.81c-2.36,5.25-5.39,10.02-9.74,13.86-8.19,7.22-18.51,7.44-26.81,.37-4.51-3.84-7.6-8.72-9.68-14.26,1.35-.62,2.67-1.37,4.07-1.83,1.51-.5,2.36-1.45,2.99-2.84,.98-2.12,1.4-4.38,1.89-6.63,6.5,.81,12.88,.25,19.15-1.63,2.26-.68,4.33-1.67,6.07-3.44-4.93,2.27-10.03,2.65-15.25,1.76-2.92-.5-5.63-1.59-8.19-3.06-.53-.31-1.03-.66-1.3-1.24-4.46-3.3-7.84-7.44-9.68-12.73-.45-1.29-.75-2.65-1.02-4-.16-.78-.42-1.31-1.28-1.48-8.3-1.63-11.6-7.69-13.29-15.13-.33-1.45-.44-2.94-.42-4.44,.06-4.77,2.51-6.76,7.18-5.77,.48,.1,.97,.16,1.46,.24,1.21,1.57,.86,3.49,1.13,5.25,.33,2.13,.52,4.29,.85,6.42,.06,.41,.05,1.02,.56,1.09,.52,.08,.67-.51,.84-.9,1.08-2.45,1.88-4.96,1.87-7.69,0-.77-.31-1.7,.65-2.22,1.02,1.53,1.62,2.98,1.01,5.02-1.31,4.38,.55,9.22,4.12,11.77,3.83,2.73,8.76,2.83,12.74,.05,3.04-2.12,4.61-5.13,4.72-8.88,.06-2.17,1.1-2.98,3.16-2.61,1.39,.25,1.69,1.15,1.72,2.4,.08,3.24,1.28,6,3.66,8.25,3.46,3.27,8.27,3.77,12.9,1.29,3.78-2.03,6.09-6.84,5.32-11.1-.09-.49-.18-.98-.29-1.46-.55-2.41,.24-4.02,2.55-5.17,1.01,.45,.75,1.39,.74,2.16-.01,2.5,.32,4.95,.98,7.36,.18,.67,.27,1.41,.97,1.86,.68-.34,.49-1.22,1.05-1.61,.89-.62,1.92-.26,2.95-.44-.59-.29-1.46,.06-1.71-.67-.25-.7,.35-1.21,.72-1.75,.31-.45,.64-.89,1.03-1.28,.61-.63,1.21-1.28,1.87-1.85-.89,.6-1.56,1.46-2.38,2.14-.41,.34-.82,1.01-1.49,.33-.32-1.14,.23-2.17,.43-3.24,.28-1.52,.67-3.02,.96-4.54,.09-.49,0-1.17,.77-1.27,0,.79,.4,1.05,1.16,.94,3.89-.61,6.06,1.74,5.92,6.15-.17,5.66-1.8,10.8-5.58,15.05-1.89,2.13-4.37,3.57-7.23,4.08-1.36,.24-1.97,.74-2.28,2.24-1.37,6.66-4.82,12.06-10.49,15.9-1.12,.76-1.48,1.54-1.44,2.84,.12,3.88,.49,7.7,1.68,11.42,.45,1.39,1.16,2.41,2.65,2.91,1.72,.57,3.37,1.35,5.06,2.04v-.03Z"/>
  <path class="cls-15" d="M44.84,58.56c-.62,1.8-.12,3.71-.65,5.54-.56,1.92-1.1,3.82-2.14,5.54-.22,.36-.43,.9-.94,.81-.5-.09-.53-.66-.59-1.07-.46-3.29-.89-6.58-1.32-9.86-.13-.99-.26-1.97-.4-2.96-.74-4.74-.81-9.47-.02-14.21,.22-1.32,.61-2.45,1.79-3.21,.94-.61,.84-1.17,.06-1.95-3.68-3.68-7.24-7.48-10.29-11.71-3.35-4.64-3.27-10.25,.15-14.44,1.95-2.39,3.83-2.93,6.74-1.82,3.44,1.32,6.19,3.58,8.38,6.53,.13,.18,.23,.38,.37,.55,.41,.47,.87,1,1.53,.58,.58-.37,.37-1,.16-1.51-1.19-2.94-1.39-6.02-1.21-9.13,.05-.82,.18-1.66,.41-2.45,1.11-3.91,4.62-5,7.67-2.3,2.65,2.34,4.21,5.37,4.91,8.82,.32,1.54,.72,3.01,1.77,4.23,.36,.41,.81,1.02,1.35,.74,.62-.33,.17-1-.02-1.47-1.1-2.69-.92-5.28,.43-7.83,1.26-2.39,2.91-3.47,5.07-3.25,2.5,.26,4.81,2.02,5.23,4.42,1.4,7.99,6.97,11.6,14.13,12.88,4.52,.81,8.03,2.83,11.24,5.8,.24,.23,.48,.46,.71,.7,.86,.87,1.47,1.05,2.11-.34,.7-1.52,1.86-2.76,3.38-3.54,1.2-.62,2.49-.79,3.56,.21,1.03,.97,.58,2.15,.09,3.22-.49,1.07-1.22,1.96-2.15,2.7-1.1,.87-1.98,1.92-2.28,3.45,1.24,.15,2.23-.61,3.35-.77,1.78-.25,3.53-.4,5.23,.27,.88,.35,1.81,.95,1.78,1.99-.03,.92-1.02,1.24-1.8,1.5-2.85,.95-5.82,1.25-8.81,1.41-1.37,.07-2.93,3.03-2.06,4.1,2.57,3.19,2.36,6.86,2.01,10.57-.12,1.32-.37,2.63-.56,3.94-.67,3.09-1.35,6.18-2.02,9.28,.28,1.26-.21,2.32-.89,3.33-.11,.31-.22,.62-.34,.92-.24,.58-.12,1.62-.77,1.65-.86,.04-1.04-.99-1.28-1.7-.89-2.63-1.25-5.34-1.32-8.1-.02-.81,.09-1.66-.27-2.44-.38-.33-.44-.79-.47-1.25-.02-.77,.05-1.55-.01-2.32-.17-2.1-.41-4.03-2.34-5.55-1.72-1.35-2.89-3.25-3.11-5.66-.18-2.01-.59-2.12-2.46-1.38-2.73,1.07-5.49,2.01-8.28,2.92-7.66,2.51-15.23,2.18-22.78-.37-1.2-.41-2.42-.77-3.61-1.22-.67-.26-1-.2-1.04,.64-.15,2.82-1.8,4.84-3.8,6.54-1.07,.9-1.79,1.81-2.07,3.22-.31,1.56-.76,3.11-1.31,4.62l-.19,.19h-.01Z"/>
  <path class="cls-14" d="M55.86,99.87c4.82,2.96,9.99,4.59,15.71,4.27,3.23-.18,6.31-.94,9.26-2.26,.33-.15,.62-.5,1.14-.29-.94,1.44-2.28,2.36-3.71,3.16-3.85,2.13-8.08,2.91-12.38,3.28-3.02,.26-6.05,.52-9.09,.17-.54-.06-1.3,.23-1.4-.72,.48-2.52,.54-5.06,.48-7.62h-.01Z"/>
  <path class="cls-8" d="M96.29,56.84c0,.45,.02,.9,.03,1.35-.73,.81-1.46,1.64-2.21,2.44-.62,.66-.3,1.31-.09,1.99,2.46,7.9-3.22,15.46-11.4,15.2-5.91-.18-10.85-5.38-10.92-11.41,0-.64,.47-1.49-.49-1.89-1.02-.42-2.05-.4-3.06,.03-.63,.27-.39,.85-.4,1.31-.13,6.29-3.49,10.44-9.54,11.78-7.3,1.61-14.72-5.69-13.23-13.03,.16-.81,.39-1.61,.67-2.38,.21-.58,.27-1.1-.21-1.52-.69-.6-.56-1.39-.58-2.15h0c1.73,.81,1.75,.83,3.25-.7,1.42-1.45,3.1-2.45,5.05-3.01,2.41-.63,4.79-.59,7.13,.29,3.29,1.3,5.66,3.58,7.07,6.82,.34,.78,.83,.88,1.65,.97,2.05,.23,3.06-.56,3.98-2.42,1.45-2.92,3.95-4.85,7.18-5.69,3.66-.91,7.01-.21,10.08,1.95,.67,.57,1.31,1.17,1.85,1.86,.85,1.09,1.45,.78,2.14-.16,.53-.71,.94-1.65,2.07-1.63h-.02Z"/>
  <path class="cls-6" d="M71.09,88.52c-2.43-.19-4.87-.55-7.22-1.39-.44-.16-1.18-.24-1-.86,.22-.78,.85-.15,1.22-.05,3.31,.86,6.6,1.72,10.07,.95,1.61-.36,3.04-.91,4.19-2.14,.37-.39,.86-1.28,1.41-.64,.45,.53-.3,1.16-.79,1.59-2.24,2-5,2.39-7.89,2.55h0Z"/>
  <path class="cls-4" d="M70.11,69.86c-.24,2.63-.51,5.25-.69,7.88-.05,.71-.35,1.63,.63,2.03,.87,.35,1.74,.26,2.5-.29,.42-.31,.79-.74,1.19-.07,.38,.65-.32,.69-.62,.91-1.16,.85-2.39,.92-3.71,.36-.78-.33-1.16-.91-1.13-1.66,.18-3.62,.82-7.21,.82-10.85,0-.39,.12-.84,.63-.78,.44,.06,.32,.51,.34,.81,.02,.55,0,1.11,0,1.66h.04Z"/>
  <path class="cls-3" d="M100.3,67.86c.3-1.11,.59-2.22,.89-3.33,1.2-.64,1.92-1.8,2.92-2.67,.45-.39,.84-.96,1.64-.3-1.28,1.34-2.7,2.52-3.73,4.06-.21,.32-.6,.62-.44,1.01,.18,.45,.68,.16,1.03,.22,.21,.04,.44,0,.66,.01,.31,.03,.76-.1,.8,.35,.06,.51-.4,.61-.79,.63-.99,.03-1.99,.02-2.98,.02Z"/>
  <path class="cls-2" d="M37,67.52c-.31-.08-.87,.19-.94-.33-.08-.61,.49-.67,.92-.65,1.33,.07,1.14-.51,.71-1.38-.64-1.31-1.79-2.23-2.55-3.43-.18-.27-.71-.55-.24-.97,.42-.37,.71,.02,.97,.29,1.11,1.16,2.07,2.43,2.83,3.84,1.1,2.06,.7,2.66-1.69,2.63h0Z"/>
  <path class="cls-5" d="M71.9,93.44c-1.09-.25-2.22-.47-3.33-.77-.39-.11-.96-.3-.71-.89,.2-.49,.64-.22,1-.11,1.82,.6,3.64,.79,5.46,0,.34-.15,.66-.16,.85,.19,.23,.43-.15,.55-.41,.74-.85,.62-1.91,.45-2.86,.84Z"/>
  <path class="cls-7" d="M96.29,56.84c-1.13,.64-1.66,1.84-2.52,2.73-.49,.51-.82,.77-1.37,0-.62-.88-1.42-1.63-2.14-2.44-1.14-3.04-3.84-3.95-6.59-4.66-2.76-.71-3.42-.13-3.57,2.69-3.67,1.34-6.38,3.67-7.74,7.42-.27,.74-.67,1.12-1.48,.83-.16-.06-.34-.17-.47-.13-2.73,.92-3.4-1.04-4.4-2.9-1.2-2.23-3.15-3.8-5.56-4.71,.1-.39,.45-.45,.75-.55,.89-.28,1.22-.9,1.03-1.78-.19-.89-.91-1.01-1.66-1.02-1.8,0-3.45,.54-5.04,1.32-.94,.46-1.79,1.07-2.71,1.55-2.26,1.1-4.39,2.39-5.87,4.49-.45,.63-.77,.4-1.14-.03-.32-.37-.64-.74-.96-1.11-.11-1.71,.9-3.19,1.05-4.81,.15-1.73,1.13-2.64,2.34-3.63,2.35-1.94,3.9-4.36,3.53-7.76,3.6,1.32,7.1,2.41,10.7,3.24,6.43,1.48,12.61,.41,18.71-1.62,2.51-.83,5.02-1.68,7.44-2.74,1.35-.6,1.84-.14,2.01,1.03,.33,2.22,.69,4.53,2.6,5.88,3.15,2.24,3.1,5.43,3.08,8.69l-.02,.02Z"/>
  <path class="cls-7" d="M89.31,57.92c4.26,3.18,5.56,8.64,3.15,13.27-2.41,4.63-7.67,6.73-12.67,5.06-4.69-1.57-7.78-6.55-7.01-11.3,.88-5.4,5.24-9.12,10.58-9.03,.48,.24,1.05,.14,1.53,.37,1.47,.56,2.69,1.76,4.41,1.63h0Z"/>
  <path class="cls-7" d="M57.81,55.95c5.24,.77,9.05,5.41,8.93,10.84-.12,5.04-4.23,9.47-9.32,10.03-5.16,.57-10.07-2.89-11.28-7.95-1.24-5.19,1.17-9.87,6.3-12.26,1.4,1.45,1.73,1.51,3.39,.53,.66-.39,1.41-.64,1.97-1.19h0Z"/>
  <path class="cls-12" d="M80.11,55.17c-.94-2.33-.22-3.46,2.22-3.32,2.55,.15,4.8,1.16,6.86,2.64,.89,.65,1.15,1.58,1.08,2.63-3.13-1.98-6.5-2.73-10.16-1.96h0Z"/>
  <path class="cls-12" d="M52.82,55.21c2.28-2.46,5.2-3.32,8.43-3.32,.95,0,1.48,.58,1.56,1.58,.07,.99-.17,1.76-1.21,2.05-.37,.1-.76,.11-1.14,.17-2.49-1.1-5.06-.84-7.64-.47h0Z"/>
  <path class="cls-11" d="M57.81,55.95c-.24,.84-2.74,2.39-3.76,2.29-.97-.09-1.69-.48-1.6-1.63,1.73-.7,3.53-.83,5.36-.66Z"/>
  <path class="cls-16" d="M89.31,57.92c-.75,.61-1.5,.38-2.23-.04-.8-.45-1.59-.91-2.39-1.37,0-.63,.37-.44,.71-.33,1.48,.18,2.75,.84,3.91,1.73h0Z"/>
  <path class="cls-1" d="M85.4,56.18c-.24,.11-.47,.22-.71,.33-.45-.18-.99-.17-1.33-.6,.7-.04,1.4-.11,2.04,.27Z"/>
  <path class="cls-10" d="M84.21,64.34c-.15,1.06-.15,2.2-.85,3.13-.77,1.03-1.73,1.03-2.37-.08-1.13-1.97-1.03-4.02-.14-6.04,.25-.56,.7-1.06,1.38-1.04,.67,.03,1.03,.58,1.34,1.12,.51,.9,.51,1.91,.64,2.92h0Z"/>
  <path class="cls-10" d="M61.29,64.34c-.15,1.04-.16,2.11-.77,3.02-.76,1.14-1.8,1.17-2.46,0-1.11-1.97-1.06-4.05-.1-6.04,.67-1.39,1.83-1.34,2.63,0,.56,.94,.58,2,.7,3.04h0Z"/>
</svg>