<?xml version="1.0" encoding="UTF-8"?>
<svg id="Layer_1" data-name="Layer 1" xmlns="http://www.w3.org/2000/svg" viewBox="0 0 139.43 139.5">
  <defs>
    <style>
      .cls-1 {
        fill: #db7543;
      }

      .cls-2 {
        fill: #180015;
      }

      .cls-3 {
        fill: #180017;
      }

      .cls-4 {
        fill: #3f232f;
      }

      .cls-5 {
        fill: #3b2140;
      }

      .cls-6 {
        fill: #f3b29b;
      }

      .cls-6, .cls-7, .cls-8, .cls-9 {
        fill-rule: evenodd;
      }

      .cls-7 {
        fill: #ea9283;
      }

      .cls-8 {
        fill: #e99486;
      }

      .cls-9 {
        fill: #0471c7;
      }
    </style>
  </defs>
  <path class="cls-2" d="M36.82,13.66c2.71-7.23,16.48-6.02,23.03-4.52l10.16,43.89c-1.13,11.19-5.15,34.34-12.19,37.44-8.8,3.87-16.25,0-23.7-7.1-7.45-7.1,.68-9.04-7.45-9.68-8.13-.65-10.16-7.1-11.51-14.2-1.35-7.1,7.45-5.81,3.39-16.78-4.06-10.97,4.06-14.85,8.13-16.78,4.06-1.94,6.77-3.23,10.16-12.26Z"/>
  <path class="cls-3" d="M75.16,6.14c6.55-1.51,20.32-2.71,23.03,4.52,3.39,9.04,6.1,10.33,10.16,12.26,4.06,1.94,12.19,5.81,8.13,16.78-2.33,6.3-.43,8.56,1.37,10.68,1.33,1.58,2.6,3.08,2.02,6.1-1.36,7.1-3.39,13.55-11.51,14.2-.8,.06-1.44,.14-1.95,.23l.11,1.58-2.11,1.3c.02,1.45-.32,3.54-3.5,6.57-7.45,7.1-14.9,10.97-23.7,7.1-7.04-3.1-11.06-26.25-12.19-37.44L75.16,6.14Z"/>
  <path class="cls-6" d="M83.5,84c-.17,4,.6,14.6,3,17l46,19.5c3,4,8.5,13.4,6.5,19H0c1.17-5.83,4.2-17.8,7-19,.51-.22,1.92-.82,3.95-1.68,9.01-3.83,30.4-12.92,41.55-17.82,2.5-3,4.3-12.2,3.5-19l27.5,2Z"/>
  <path class="cls-5" d="M55.5,93c1-5.5,.5-8.5,.5-11h27v3.5c-4.5,7.5-19.33,8-27.5,7.5Z"/>
  <path class="cls-6" d="M70.5,12c-15.7,0-28.14,13.27-27.12,28.94l.2,3.02-1.07-.96c-5.33-3-15.1-5.3-11.5,9.5,2.47,10.16,8.7,13.52,14.09,14.09,1.59,12.72,12.43,22.41,25.41,22.41s23.82-9.69,25.41-22.41c5.39-.57,11.62-3.92,14.09-14.09,3.6-14.8-6.17-12.5-11.5-9.5l-1.07,.96,.2-3.02c1.02-15.67-11.42-28.94-27.12-28.94Z"/>
  <path class="cls-8" d="M102.72,48.35c1.03-1.13,2.21-2.15,2.97-2.74l.61,.79c-.73,.57-1.86,1.55-2.85,2.63-.5,.54-.95,1.1-1.3,1.63-.19,.3-.35,.58-.47,.84h2.81v1h-4.11l.12-.6c.12-.59,.42-1.2,.81-1.79,.39-.59,.88-1.19,1.4-1.76Z"/>
  <path class="cls-8" d="M37.1,48.7c-.81-1.11-1.8-2.19-2.45-2.84l.71-.71c.68,.68,1.7,1.8,2.55,2.96,.43,.58,.82,1.18,1.11,1.74,.28,.55,.49,1.13,.49,1.65v.42l-3.42,.57-.16-.99,2.52-.42c-.06-.22-.17-.49-.32-.79-.25-.5-.61-1.05-1.02-1.61Z"/>
  <path class="cls-7" d="M71.36,78.06c-1.46-.15-2.8-.68-3.6-1.12l.49-.87c.7,.39,1.91,.86,3.22,1,1.31,.14,2.66-.07,3.72-.95l.64,.77c-1.34,1.12-2.99,1.33-4.46,1.18Z"/>
  <path class="cls-7" d="M71.71,73.22c-3.36,0-6.77-.91-8.9-1.76l.37-.93c2.04,.82,5.33,1.7,8.53,1.69,3.21,0,6.2-.9,7.87-3.5l.84,.54c-1.93,3.01-5.36,3.95-8.71,3.95Z"/>
  <path class="cls-7" d="M68.94,59.2c.23-2.46,.48-5.32,.56-7.23l1,.04c-.08,1.93-.33,4.82-.56,7.27-.08,.85-.16,1.65-.22,2.35-.03,.31-.06,.6-.08,.86-.04,.42-.07,.78-.1,1.04-.01,.13-.02,.24-.03,.32,0,.04,0,.07,0,.1v.02s.01,.03,.03,.05c.04,.06,.11,.14,.22,.23,.21,.18,.53,.36,.93,.45,.76,.18,1.83,.06,2.97-1.07l.71,.71c-1.37,1.37-2.79,1.6-3.91,1.34-.54-.13-1-.38-1.34-.66-.17-.14-.31-.29-.42-.45-.1-.15-.19-.35-.19-.58,0-.16,.06-.77,.14-1.59,.03-.26,.05-.55,.08-.86,.07-.69,.14-1.49,.22-2.34Z"/>
  <path class="cls-4" d="M61.5,49c0,2.21-.9,4-2,4s-2-1.79-2-4,.9-4,2-4,2,1.79,2,4Z"/>
  <path class="cls-4" d="M84.5,49c0,2.21-.9,4-2,4s-2-1.79-2-4,.9-4,2-4,2,1.79,2,4Z"/>
  <path class="cls-1" d="M86,37.88c-3.6-2.4-7.17,.67-8.5,2.5,.5,.5,3.2-.5,6-.5,3.5,0,8,4.5,8,3.5s-1-2.5-5.5-5.5Z"/>
  <path class="cls-1" d="M57.5,37.88c3.6-2.4,7.17,.67,8.5,2.5-.5,.5-3.2-.5-6-.5-3.5,0-8,4.5-8,3.5s1-2.5,5.5-5.5Z"/>
  <path class="cls-3" d="M97.9,46.18c3.6-3.99,8.61-13.83,3.6-25.18-5.01-11.35-14.28-15.18-17.96-15.18-.61-1.77-2.8-4.97-6.63-3.55-2.73,1.01-4.5,.15-6.41-.78-1.44-.7-2.95-1.44-5.01-1.44-.38,0-.82-.01-1.33-.02-5.91-.15-19.99-.49-28.13,14.22-.49,.88-.92,1.75-1.31,2.62-3.97,7.56-7.18,16.59-6.73,25.63,.23,4.63,1.86,9.48,3.34,13.89,1.72,5.12,3.25,9.66,2.17,12.61-1.6,4.4,7,.83,11.5-1.5-.05-1.42-.33-3-.62-4.66-.71-3.99-1.5-8.46,.62-12.34,.03-.06,.06-.14,.08-.24,.64-1.02,1.23-3.08,1.89-6.76,.94-5.17,3.97-5.93,7.08-6.71,2.66-.67,5.38-1.35,6.91-4.82,1.61-3.65,3.55-5.75,4.87-7.16,.85-.92,1.44-1.55,1.49-2.13,2.21,1.48,7.58,3.9,11.41,1.77,4.79-2.66,11.04-3.55,13.62,2.66,2.18,5.24,2.78,10.49,3.13,13.59,.07,.57,.12,1.07,.18,1.48,.37,2.66,1.1,3.99,2.21,3.99Z"/>
  <path class="cls-9" d="M116.79,113.91l-24.79-10.41s-4,20-22.5,20-22.5-20-22.5-20c-6.78,2.97-15.98,6.88-23.88,10.22,2.58,7.29,5.13,16.8,6.26,25.78H110.6c1.12-8.9,3.63-18.32,6.19-25.59Z"/>
</svg>