<?xml version="1.0" encoding="UTF-8"?>
<svg id="Layer_1" data-name="Layer 1" xmlns="http://www.w3.org/2000/svg" viewBox="0 0 138.98 154.28">
  <defs>
    <style>
      .cls-1 {
        fill: #e89486;
      }

      .cls-2 {
        fill: #e99383;
      }

      .cls-3 {
        fill: #e99687;
      }

      .cls-4 {
        fill: #ea9384;
      }

      .cls-5 {
        fill: #f5494d;
      }

      .cls-6 {
        fill: #f2b19a;
      }

      .cls-7 {
        fill: #fefefe;
      }

      .cls-8 {
        fill: #fefdfd;
      }

      .cls-9 {
        fill: #9d8e99;
      }

      .cls-10 {
        fill: #da7544;
      }

      .cls-11 {
        fill: #40242f;
      }

      .cls-12 {
        fill: #3b2140;
      }

      .cls-13 {
        fill: #3d2035;
      }
    </style>
  </defs>
  <path class="cls-7" d="M74.46,154.28h-10.3c-.11-.12-.23-.24-.35-.35-2.74-4.77-5.18-9.7-7.85-14.5-.29-.52-.55-1.1-.17-1.71,.71-.43,1.41-.12,2.08,.08,3.61,1.11,7.32,1.84,11.08,1.9,3.88,.06,7.68-.78,11.43-1.8,.78-.21,1.56-.63,2.4-.22,.39,.54,.19,1.06-.08,1.55-2.66,4.88-5.21,9.83-7.9,14.69-.12,.11-.24,.23-.35,.35h0Z"/>
  <path class="cls-9" d="M64.12,153.92c.01,.12,.02,.24,.03,.36H.03c-.03-.48-.13-.98,.27-1.37,1.15,.49,2.36,.5,3.58,.5H61.06c1.04,0,2.11-.12,3.06,.51Z"/>
  <path class="cls-9" d="M74.46,154.28c.01-.12,.03-.24,.04-.37,.73-.48,1.56-.51,2.4-.51h59.38c.72,0,1.44-.04,2.11,.31,.22,.13,.28,.32,.19,.56H74.46Z"/>
  <path class="cls-6" d="M55.92,99.47c-4.83-3.67-8.67-8.15-10.03-14.17-.64-2.81-1.79-4.11-4.63-4.9-4.62-1.27-7.34-4.93-9.1-9.23-1.35-3.3-2.08-6.73-1.93-10.34,.16-3.74,2.55-5.69,6.29-5.06,.43,.07,.88,.04,1.32,.06,1.41-.23,2.03,.55,2.25,1.8,.81,4.61,1.4,9.25,2.01,13.67-.02-.29,.21-.73,.37-1.2,.9-2.6,1.92-5.18,1.64-8.03-.04-.38,.06-.77,.27-1.11,1.27,0,1.88,.62,1.79,1.82-.04,.5-.28,.95-.4,1.43-1.19,4.64,.07,8.6,3.69,11.63,3.26,2.73,7.06,3.3,11.03,1.6,4.33-1.85,6.6-5.19,6.86-9.89,.12-2.16,.61-2.76,2.38-2.78,1.72-.02,2.43,.61,2.49,2.34,.12,3.3,1.28,6.11,3.72,8.4,3.46,3.24,8.28,3.73,12.91,1.24,3.77-2.03,6.07-6.85,5.27-11.12-.13-.7-.29-1.41-.46-2.11-.43-1.76,.9-3.79,2.79-4.33,.38,.46,.4,1.03,.36,1.57-.28,3.62,.43,7.05,1.99,10.22,.16-1.02,.14-2.19,.6-3.27,.32-.68,.93-.67,1.55-.65,.81,.02,1.63,.15,2.54-.14-2.38-.87-2.46-1.32-.7-3.23,.7-.76,1.44-1.47,2.14-2.22-1.49,1.5-3.25,2.74-4.15,4.77-.38,.86-.83,.81-1.12-.12,.07-2.99,.68-5.92,1.15-8.86,.08-.47,.14-1.17,.96-1.07,1.58-.12,3.05-.85,4.73-.46,2.09,.49,3.42,1.72,3.71,3.75,.85,5.93-1.59,15.86-8.43,19.91-1.48,.88-3.05,1.6-4.8,1.72-.97,.07-1.39,.55-1.54,1.41-1.28,7.32-5.11,12.98-11.22,17.12-.56,.38-.86,.77-.86,1.47,0,3.83,.37,7.61,1.34,11.33,.52,1.99,1.37,3.62,3.54,4.16,.87,.22,.98,.71,.66,1.49-2.28,5.46-5.34,10.29-10.5,13.53-6.16,3.87-14.75,3.28-20.26-1.47-3.76-3.24-6.51-7.2-8.33-11.83-.32-.82-.37-1.43,.57-1.68,2.77-.73,3.36-3.12,4.08-5.37,.43-1.35,.66-2.76,.98-4.15,5.65,.41,11.27,.29,16.82-.97,3.1-.71,5.92-2.02,8.21-3.97-1.27,.41-2.14,.75-3.04,1.02-7.02,2.07-13.67,1.08-20.01-2.43-.59-.33-1.12-.7-1.51-1.27v-.03Z"/>
  <path class="cls-5" d="M44.6,60.83c.43,4.04-.9,7.7-2.49,11.37-.77-.85-.47-1.94-.73-2.87-.27-1-.32-2.06-.47-3.09-.37-2.61-.77-5.22-1.09-7.83-.16-1.29-.57-2.28-1.97-2.57-.1-3.6-.26-7.19-.28-10.79-.05-9.43,5.05-16.82,13.86-20.2,.3-.12,.6-.26,.9-.38C47.53,13.74,53.82-.05,67.16,.02c3.42,.02,6.85-.27,10.17,.97,6.07,2.26,10.38,8.16,10.39,14.64,0,2.84,.62,5.8-1.25,8.37,.37,.55,.95,.55,1.44,.72,8.56,2.97,14.17,10.81,14.14,19.85-.02,3.87-.17,7.75-.27,11.62-1.16,2.15-.83,4.59-1.36,6.86-.26,1.11-.27,2.29-.4,3.43-.19,.31,0,.72-.26,1.02-.24,1.57-.48,3.15-.76,4.93-2.35-4.29-3.03-8.66-2.62-13.25-.3-.66-.04-1.3,.05-1.94,.5-1.43-.27-1.97-1.5-2.38-5.49-1.83-10.7-4.23-15.13-8.03-3.19-2.74-6.05-5.82-8.68-9.11-1.28-1.61-1.33-1.63-2.63-.03-2.55,3.14-5.27,6.12-8.27,8.82-4.04,3.64-8.9,5.69-14.09,7.06-2.25,.59-2.29,.62-1.78,2.94,.27,1.2,.19,2.42,.42,3.62,.03,.25,0,.49-.18,.69h0Z"/>
  <path class="cls-13" d="M138.97,150.27c0,.68,0,1.35,0,2.03-.14,.54-.28,1.09-.41,1.63-21.36,0-42.71,0-64.07-.02,2.46-4.67,4.93-9.34,7.38-14.01,.33-.63,.63-1.28,.95-1.92,0-.63,.22-1.18,.52-1.72,2.99-5.37,5.75-10.86,8.76-16.22,.27-.48,.43-1.04,1-1.28,5.09,2.11,10.19,4.19,15.26,6.33,7.52,3.17,15.02,6.38,22.52,9.57,.55,.23,1.14,.38,1.52,.93,3.1,4.49,5.76,9.17,6.55,14.68h.01Z"/>
  <path class="cls-13" d="M64.12,153.92c-20.82,0-41.63,.02-62.45,.04-.77,0-1.47,.04-1.37-1.05,1.02-4.87,2.27-9.67,4.19-14.28,.82-1.96,2.06-3.35,4.13-4.22,11.85-4.98,23.64-10.08,35.46-15.13,.45-.19,.93-.35,1.39-.52,1.1,.77,1.47,2.04,2.06,3.13,2.6,4.84,5.15,9.72,7.81,14.53,.27,.49,.43,1.01,.4,1.57,2.64,4.96,5.28,9.92,7.91,14.88,.18,.33,.31,.69,.46,1.04h0Z"/>
  <path class="cls-6" d="M55.75,138c-3.42-6.41-6.85-12.82-10.27-19.24,2.74-1.4,2.76-1.41,4.01,1.26,2.41,5.15,5.56,9.69,10.59,12.63,6.45,3.77,14.61,3.21,20.57-1.37,4.1-3.15,6.91-7.28,8.79-12.04,.61-1.55,1.29-1.95,2.68-1.03,.31,.21,.77,.17,.99,.55-3.42,6.41-6.85,12.81-10.27,19.22-2.21,0-4.25,.89-6.36,1.37-6.35,1.43-12.54,.71-18.68-1.07-.67-.19-1.31-.56-2.04-.27h0Z"/>
  <path class="cls-12" d="M55.92,99.47c3.29,1.84,6.67,3.41,10.46,3.97,4.78,.71,9.37,.13,13.82-1.69,.34-.14,.66-.46,1.21-.18-.16,.93-.96,1.35-1.62,1.82-3.49,2.47-7.53,3.38-11.66,3.97-3.79,.55-7.62,.52-11.44,.41-.5-.01-1.18,.2-1.25-.67,.47-2.52,.55-5.07,.47-7.63h.01Z"/>
  <path class="cls-7" d="M44.6,60.83c-.03-.21-.06-.41-.09-.62-.12-.37-.28-.8,.15-1.02,.31-.16,.64,.13,.82,.4,.74,1.08,1.34,.72,2.03-.08,1.58-1.82,3.48-3.16,5.89-3.66,1-.26,2-.49,3.04-.44,5.06,.23,8.65,2.71,10.86,7.21,.45,.91,.95,1.17,2,1.26,1.9,.17,2.75-.55,3.61-2.21,2.96-5.68,8.99-7.6,15.37-5.15,.81,.38,1.62,.77,2.28,1.41,.9,.78,1.52,2.25,2.64,2.31,1.13,.06,1.47-1.61,2.38-2.31,.37-.28,.52-.89,1.16-.75,0,.68,0,1.37-.35,1.99-.59,.65-1.15,1.33-1.78,1.94-.78,.74-.83,1.49-.51,2.52,2.47,7.81-3.15,15.34-11.27,15.16-6-.13-11-5.34-11.03-11.46,0-1.78-.57-2.28-2.36-2.13-1.14,.1-1.71,.49-1.67,1.85,.11,4.32-1.73,7.74-5.42,9.98-4.03,2.45-8.15,2.4-12.22-.08-4.18-2.55-6.38-8.39-4.69-13.05,.51-1.43,.33-2.3-.85-3.08h0Z"/>
  <path class="cls-2" d="M71.25,88.12c-2.43-.2-5.02-.67-7.55-1.44-.39-.12-.99-.28-.76-.87,.25-.62,.74-.19,1.13-.08,3.13,.82,6.23,1.74,9.56,1.1,1.96-.38,3.69-1.05,5.1-2.49,.3-.3,.7-.8,1.1-.37,.45,.47-.21,.75-.46,1.04-1.86,2.2-4.6,2.93-8.13,3.12h.01Z"/>
  <path class="cls-2" d="M70.21,69.28c-.25,2.68-.56,5.36-.71,8.05-.12,2.17,1.02,2.78,3.02,1.79,.43-.21,.92-1.03,1.36-.24,.39,.7-.51,.88-.9,1.12-1.16,.72-2.41,.69-3.63,.07-1.11-.57-.94-1.55-.9-2.58,.13-3.19,.8-6.35,.7-9.55-.02-.5-.04-1.12,.7-1.04,.78,.09,.23,.7,.28,1.06,.07,.43,.02,.88,.02,1.33h.06Z"/>
  <path class="cls-3" d="M99.76,67.51c-.05-.37-.07-.74,.26-1.02,1.13-2.1,2.85-3.69,4.53-5.31,.33-.32,.69-.93,1.2-.32,.49,.58-.26,.69-.51,.97-.96,1.05-2.12,1.92-2.93,3.13-.5,.74-.83,1.27,.51,1.24,.56-.01,1.44-.18,1.37,.71-.06,.81-.92,.58-1.49,.6-.97,.03-1.95,.01-2.93,.02v-.02Z"/>
  <path class="cls-8" d="M37.92,75.65c.28-1.04,.78-1.96,2.09-1.8,1.14,.14,2.01,.77,1.86,2.06-.14,1.14-.76,2.01-2.06,1.86-1.14-.14-1.93-.76-1.88-2.12h0Z"/>
  <path class="cls-8" d="M100.81,77.83c-1.08-.18-2.07-.57-2.07-1.88,0-1.14,.53-2.09,1.83-2.1,1.14,0,2.08,.53,2.1,1.83,.01,1.16-.56,1.98-1.86,2.15Z"/>
  <path class="cls-1" d="M39.23,65.39c0,.88,0,1.35-.69,1.46-.8,.12-1.57,.6-2.39,.14-.09-.05-.15-.29-.12-.43,.07-.34,.38-.32,.64-.38,1.81-.42,1.82-.43,.76-2-.7-1.05-1.42-2.1-2.34-2.98-.19-.18-.45-.4-.24-.7,.18-.26,.48-.32,.72-.1,1.64,1.49,3,3.19,3.66,4.99Z"/>
  <path class="cls-4" d="M67.62,91.64c.62-.84,1.24-.42,1.84-.24,1.61,.47,3.21,.68,4.81-.03,.34-.15,.79-.47,.99,.02,.2,.5-.32,.81-.71,.94-2.39,.81-4.7,.66-6.94-.7h.01Z"/>
  <path class="cls-6" d="M96.73,57.19c-.96,1.12-1.93,2.24-2.88,3.37-.49,.58-.84,.71-1.37-.03-.6-.84-1.38-1.55-2.08-2.32,.15-.6-.06-1.13-.45-1.53-1.69-1.77-3.52-3.42-5.9-4.14-2.28-.69-4.02,.48-5.78,2.29,1.98-.08,3.63-.46,5.31-.38,1.81,.08,3.26,.95,4.69,1.89,.19,.12,.26,.35,.12,.58-2.43-.74-4.83-1.37-7.45-.78-3.94,.89-6.61,3.19-8.18,6.81-.5,1.16-.98,1.98-2.39,1.31-.05-.02-.12-.03-.16-.02-2.29,.79-2.92-.65-3.84-2.4-2.04-3.84-5.49-5.77-9.86-6.01,.5-1.3,1.71-1.22,2.76-1.33,1.81-.2,3.62,.09,5.52,.41-2.02-2.74-4.82-3.26-7.55-1.54-1.4,.88-2.6,2.04-4.03,2.89-2.22,.73-4.19,1.9-5.59,3.78-.94,1.26-1.58,1.18-2.33-.07-.13-.21-.33-.39-.58-.67-.08,.41-.14,.67-.19,.93-.31-1.84-.63-3.67-.93-5.51-.15-.94,.52-1.03,1.21-1.2,3.54-.89,6.98-2.03,10.22-3.78,4.12-2.23,7.23-5.61,10.36-8.97,1.32-1.41,2.54-2.91,3.73-4.44,.59-.76,.87-.74,1.45,0,2.86,3.67,5.96,7.14,9.49,10.18,4.56,3.92,9.95,6.33,15.61,8.15,1.5,.48,1.78,1.24,1.1,2.54l-.03-.02Z"/>
  <path class="cls-6" d="M83.33,56.87c5.75,.02,10.41,4.72,10.4,10.5,0,5.83-4.74,10.49-10.61,10.45-5.72-.04-10.35-4.78-10.32-10.58,.03-5.74,4.75-10.38,10.53-10.37Z"/>
  <path class="cls-6" d="M66.81,67.34c0,5.76-4.66,10.46-10.4,10.47-5.85,.01-10.54-4.67-10.53-10.52,0-5.78,4.74-10.44,10.53-10.43,5.74,0,10.4,4.71,10.4,10.47h0Z"/>
  <path class="cls-10" d="M88.38,56.9c-2.89-2.58-6.25-2.27-9.68-1.62-.36,.07-.72,.34-1.08,0,1.23-2.59,4.47-4.12,6.97-3.06,2.4,1.02,4.47,2.59,6.08,4.69,.37,.48,.84,1.08-.28,1.27-.67-.43-1.34-.87-2.01-1.3h0Z"/>
  <path class="cls-10" d="M53.19,56.24c1.32-1.84,3.2-3.03,5.16-3.98,2.19-1.05,5.62,.23,7.01,2.36,.11,.18,.34,.33,.19,.57-.18,.28-.45,.23-.73,.18-1.62-.28-3.24-.58-4.91-.54-1.24,.03-2.4,.25-3.42,.99-1.1,.14-2.2,.28-3.3,.42Z"/>
  <path class="cls-11" d="M80.22,63.64c.11-.58,.18-1.3,.4-1.98,.27-.84,.62-1.8,1.71-1.75,.97,.04,1.35,.92,1.58,1.72,.49,1.69,.52,3.39-.24,5.02-.29,.62-.7,1.18-1.47,1.15-.7-.02-1.03-.59-1.33-1.12-.52-.9-.47-1.92-.64-3.04h-.01Z"/>
  <path class="cls-11" d="M61.36,63.91c-.1,.85-.15,1.73-.53,2.56-.31,.68-.68,1.33-1.52,1.34-.77,0-1.18-.62-1.42-1.23-.75-1.88-.77-3.77,.1-5.63,.27-.58,.69-1.05,1.38-1.05s1.04,.56,1.36,1.09c.53,.89,.48,1.92,.64,2.93h-.01Z"/>
</svg>