<?xml version="1.0" encoding="UTF-8"?>
<svg id="Layer_1" data-name="Layer 1" xmlns="http://www.w3.org/2000/svg" viewBox="0 0 139.17 136.53">
  <defs>
    <style>
      .cls-1 {
        fill: #e89486;
      }

      .cls-2 {
        fill: #e99586;
      }

      .cls-3 {
        fill: #e99384;
      }

      .cls-4 {
        fill: #e99283;
      }

      .cls-5 {
        fill: #fef3d5;
      }

      .cls-6 {
        fill: #fee4a1;
      }

      .cls-7 {
        fill: #f2b19a;
      }

      .cls-8 {
        fill: #feedc0;
      }

      .cls-9 {
        fill: #fee9b0;
      }

      .cls-10 {
        fill: #fef8e6;
      }

      .cls-11 {
        fill: #fef0ca;
      }

      .cls-12 {
        fill: #feeab4;
      }

      .cls-13 {
        fill: #aa745a;
      }

      .cls-14 {
        fill: #dc9f85;
      }

      .cls-15 {
        fill: #251e27;
      }

      .cls-16 {
        fill: #40242e;
      }

      .cls-17 {
        fill: #775520;
      }

      .cls-18 {
        fill: #785621;
      }
    </style>
  </defs>
  <path class="cls-17" d="M111.7,109.18c3.32,.9,6.33,2.55,9.5,3.83,3.28,1.32,6.51,2.75,9.76,4.13,.61,.26,1.21,.48,1.62,1.09,2.74,4.05,5.16,8.25,6.18,13.1,0,.05,.03,.11,.04,.16,.89,4.47,.43,5.04-4.04,5.04H2.15c-.72,0-1.43-.06-2.15-.09v-.66c1.2-3.83,1.85-7.82,3.29-11.58,.08-.21,.14-.42,.19-.63,1.05-3.74,3.21-6.2,7.08-7.54,5.1-1.77,9.98-4.15,14.96-6.26,.55-.23,1.14-.4,1.71-.59,2.33,.12,4.3,1.36,6.4,2.15,5.39,2.02,10.73,4.16,16.09,6.26,4.81,1.88,9.74,3.36,14.84,4.16,3.69,.58,7.38,.46,11.06-.25,7-1.34,13.6-3.92,20.2-6.5,4.69-1.84,9.41-3.6,14.1-5.44,.58-.23,1.16-.37,1.77-.37h.01Z"/>
  <path class="cls-6" d="M81.77,1.28c1.85,.56,6.24,1.76,9.11,3.36,7.1,3.94,11.03,9.87,11.17,18.06,.1,5.36,.02,10.72-.3,16.07-.16,3.49-.9,6.89-1.4,10.33-.23,1.58-.34,3.19-.69,4.75-.1,.47-.19,1.13-.74,1.18-.57,.05-.7-.61-.93-1.04-1.93-3.77-2.41-7.78-2.01-11.94,.1-.61,.29-1.2,.42-1.8,.4-1.97,.31-2.11-1.54-2.79-5.41-2-10.71-4.23-15.13-8.06-3.14-2.72-5.97-5.74-8.57-8.98-1.36-1.69-1.37-1.69-2.73,0-2.92,3.62-6.13,6.96-9.72,9.93-3.76,3.12-8.28,4.58-12.86,5.91-1.84,.53-1.85,.51-1.59,2.35,.16,1.09,.41,2.17,.39,3.29,.04,.7,.32,1.35,.32,2.05,.41,3.48-.69,6.67-1.96,9.81-.21,.51-.31,1.38-1.07,1.24-.64-.12-.71-.92-.81-1.51-.53-3.11-.92-6.24-1.38-9.36-.16-1.1-.4-2.18-.5-3.28-.1-1.05-.98-1.57-1.4-2.38-.36-5.23-.37-10.47-.31-15.71,.09-7.77,3.77-13.49,10.22-17.62,2.91-1.86,7.3-3.5,9.4-3.84S64.32-.04,70.35,0c5.22,.04,9.57,.72,11.42,1.28Z"/>
  <path class="cls-10" d="M71.79,1.59h-5.3c-.12-.06-.16-.13-.12-.2s.07-.11,.11-.11h5.32c.11,.07,.15,.14,.11,.21s-.08,.1-.11,.1h0Z"/>
  <path class="cls-9" d="M77.11,1.61c-.11-.07-.14-.15-.1-.22s.07-.11,.11-.11c1.33,0,1.32,.17,0,.33h-.01Z"/>
  <path class="cls-12" d="M63.82,1.61c-.89-.13-.89-.33,0-.33,.11,.07,.15,.14,.11,.22-.03,.07-.07,.11-.11,.11Z"/>
  <path class="cls-11" d="M63.82,1.61v-.33h2.66c0,.1,0,.21,.01,.31h-2.67v.02Z"/>
  <path class="cls-5" d="M71.79,1.59v-.31h2.66c.11,.07,.15,.15,.11,.22s-.08,.1-.11,.1h-2.66Z"/>
  <path class="cls-8" d="M74.45,1.6v-.32h2.66v.33h-2.66Z"/>
  <path class="cls-7" d="M37.86,38.45c1.06,.32,1.67,.84,1.83,2.13,.51,4.18,1.22,8.33,1.86,12.49,.09,.58,.24,1.16,.41,1.97,1.68-3.77,2.96-7.36,2.63-11.32,1.52,.3,1.57,1.31,1.2,2.51-.8,2.58-.66,5.14,.28,7.64,1.72,4.55,6.83,7.66,11.47,7.03,5.29-.72,9.41-5,9.8-10.18,.02-.33,.02-.66,.04-.99,.09-1.75,.67-2.34,2.28-2.35,1.84,0,2.56,.6,2.57,2.43,.04,6.8,5.47,11.01,10.89,11.13,7.31,.17,12.68-6.94,10.75-14.13-.64-2.38,.3-4.25,2.52-5.03-.3,4.53,.17,8.91,2.63,13.1,.47-3.05,.86-5.98,1.39-8.89,.44-2.4,.24-4.93,1.35-7.21,1.14-.2,2.27-.51,3.42-.58,2.66-.15,4.73,1.39,5.1,3.98,.81,5.76-1.75,15.35-7.75,19.27-1.74,1.14-3.58,1.99-5.64,2.25-.89,.11-1.29,.58-1.41,1.35-.82,5.25-3.36,9.64-6.77,13.6-.6,1.56-2.04,2.3-3.29,3.16-1.14,.78-1.52,1.7-1.56,3.04-.08,2.25,.57,4.48,.18,6.73,.2,1.01,.38,2.03,.6,3.04,.47,2.19,1.4,4.01,3.86,4.54,.23,.05,.42,.31,.63,.47,.37,.46,.23,.94,.03,1.41-2.58,5.95-6.05,11.16-12.09,14.17-6.5,3.24-14.4,2.09-19.77-2.78-3.43-3.11-5.92-6.82-7.66-11.07-.23-.55-.58-1.1-.12-1.71,4.49-1.57,5.01-5.54,5.7-9.41,.04-.2,.16-.39,.24-.58,6.71,.46,13.36,.29,19.81-1.95,1.78-.62,3.47-1.42,5.23-2.94-2.74,.86-5.12,1.56-7.6,1.83-5.77,.61-11.06-.79-16.03-3.66-.39-.23-.66-.58-.94-.92-2.34-2.01-4.7-3.98-6.48-6.56-2.12-3.09-3.62-6.43-4.21-10.14-.12-.77-.28-1.4-1.17-1.56-6.86-1.17-10.55-5.71-12.58-11.95-.87-2.68-1.37-5.43-1.25-8.29,.17-3.93,2.61-5.91,6.5-5.16,.38,.07,.77,.07,1.15,.1h-.03Z"/>
  <path class="cls-7" d="M111.7,109.18c-3.72,1.82-7.66,3.11-11.52,4.58-6.55,2.49-13.01,5.21-19.78,7.12-7.44,2.1-14.8,2.19-22.2-.03-10.6-3.17-20.7-7.65-30.96-11.68,4.19-1.85,8.38-3.71,12.57-5.54,2.89-1.26,5.79-2.48,8.68-3.72,1.32,1.66,1.75,3.78,2.92,5.54,1.91,2.86,3.82,5.65,6.57,7.83,6.34,5,15.38,5.19,21.95,.45,4.33-3.13,7.04-7.4,9.16-12.16,.27-.6,.4-1.28,1.01-1.67,6.97,2.94,13.95,5.87,20.92,8.82,.24,.1,.44,.31,.66,.47h.02Z"/>
  <path class="cls-15" d="M55.9,82.01c2.85,1.45,5.65,2.96,8.83,3.64,5.25,1.12,10.32,.67,15.29-1.31,.43-.17,.84-.61,1.46-.13-.53,1.02-1.48,1.58-2.39,2.16-3.44,2.19-7.34,3-11.29,3.55-3.68,.51-7.39,.49-11.1,.38-.5-.02-1.17,.23-1.27-.63,.46-2.53,.58-5.08,.47-7.64v-.02h0Z"/>
  <path class="cls-18" d="M90.11,99.9c-2.36,6.8-6.15,12.56-12.74,15.85-7.81,3.9-16.99,1.7-22.78-5.14-2.69-3.18-4.91-6.66-6.11-10.71,.29-.25,.64-.31,1.01-.26,2.3,6.65,6.02,12.26,12.52,15.36,7.7,3.67,16.43,1.17,22.01-6,2.21-2.84,4.16-5.85,5.08-9.39,.38-.06,.7,.07,1.01,.28h0Z"/>
  <path class="cls-6" d="M84.02,91.58c-.59-2.75-.67-5.54-.59-8.33,.02-.56,.39-.9,.82-1.17,1.61-.98,2.98-2.25,4.43-3.43,.44,2.45,.99,4.86,2.38,6.99,.52,.8,1.15,1.54,2.07,1.83,1.61,.51,.91,1.43,.34,2.12-1.07,1.3-2.63,1.81-4.24,1.99-1.36,.15-2.76,.22-4.09-.32-.45-.18-.96-.5-1.13,.33h0Z"/>
  <path class="cls-7" d="M44.25,41.85c-.17-1.31-.2-2.65-.54-3.91-.33-1.26,.09-1.59,1.25-1.9,4.65-1.24,9.27-2.63,13.11-5.69,4.12-3.28,7.67-7.14,10.91-11.27,.7-.9,.92-.88,1.64,0,3.47,4.29,7.06,8.49,11.6,11.72,3.99,2.84,8.46,4.74,13.06,6.35,1.98,.7,2.09,.87,1.52,2.98-.82,.88-1.5,1.86-2.29,2.76-1.25,1.43-1.54,1.48-2.72-.08-.51-.67-1.46-1.06-1.48-2.08,.33-.98-.31-1.56-.9-2.14-.88-.85-1.89-1.53-2.87-2.24-2.93-2.14-5.13-1.93-8.03,.79,.51,.43,1.04,.15,1.53,.08,1.71-.23,3.42-.31,5.11,.04,.79,.16,1.64,.38,2.04,1.24-.01,.29-.19,.45-.43,.56-1,.29-1.97-.16-2.96-.17-5.03-.06-8.59,2.25-10.68,6.73-.65,1.4-1.41,1.6-2.87,1.73-2.3,.21-3.26-.63-4.2-2.6-1.54-3.23-4.36-5.06-7.88-5.75-.54-.1-1.11-.07-1.59-.41,.07-1.38,1.22-1.38,2.11-1.47,1.47-.16,2.97-.15,4.45,.07,.47,.07,.95,.31,1.45,.05-2.06-2.56-4.96-3-7.53-1.19-1.26,.89-2.52,1.78-3.58,2.91-2.3,1.17-4.6,2.33-6.16,4.53-.49,.7-1.12,.58-1.68,.02-.5-.51-.88-1.12-1.36-1.65h-.03Z"/>
  <path class="cls-17" d="M90.42,40.8c.69,.76,1.46,1.46,2.05,2.29,.6,.85,.94,.58,1.43-.07,.69-.91,1.44-1.78,2.18-2.64,.17-.2,.3-.68,.72-.26-.14,.54-.27,1.09-.41,1.63-.77,.86-1.52,1.73-2.32,2.57-.55,.58-.19,1.11,0,1.68,1.58,4.73,.21,9.63-3.53,12.73-3.72,3.08-8.67,3.53-13.01,1.02-3.8-2.2-5.77-5.62-5.67-9.99,.04-1.84-.86-1.96-2.18-1.98-1.28-.02-1.94,.31-1.91,1.88,.11,6.49-5.07,11.71-11.42,11.69-6.48-.02-11.58-5.28-11.46-11.86,.02-1.03-.09-2.09,.42-3.05,.61-1.14,.44-2.06-.7-2.75,.11-.66-.59-1.17-.35-1.86,.2,.05,.44,.05,.6,.16,.65,.47,.88,1.74,1.68,1.57,.63-.13,1.04-1.17,1.62-1.75,1.42-1.42,3.16-2.33,5-3.08,1.11-.53,2.21-1.2,3.46-.35,5.13,.38,8.72,2.89,10.56,7.73,.3,.78,.73,.69,1.44,.83,2.84,.54,3.82-1.08,5.12-3.21,2.95-4.84,7.6-6.06,12.98-4.9,.68,.06,1.31,.31,1.94,.57,.69,.34,1.45,.59,1.79,1.38,0,0-.03,.02-.03,.02Z"/>
  <path class="cls-4" d="M71.42,70.66c-2.58-.33-5.22-.52-7.69-1.52-.37-.15-1.03-.13-.78-.79,.18-.5,.64-.24,.99-.12,2.84,1.02,5.78,1.19,8.78,1.14,2.46-.04,4.5-.87,6.17-2.66,.24-.26,.37-.81,.87-.45,.53,.39,.14,.75-.15,1.09-1.45,1.74-3.35,2.63-5.55,2.97-.87,.13-1.74,.22-2.63,.32v.02h-.01Z"/>
  <path class="cls-4" d="M70.2,51.74c-.24,2.73-.55,5.46-.71,8.19-.11,2.02,1.11,2.71,2.95,1.79,.24-.12,.46-.31,.69-.45,.27-.17,.53-.13,.73,.11,.22,.26,.12,.47-.13,.69-1.19,1.04-2.54,1.29-4,.76-1.25-.46-1.43-1.4-1.3-2.66,.32-3.11,.47-6.23,.71-9.35,.04-.5-.25-1.3,.57-1.31,1.05,0,.23,.83,.4,1.25,.11,.29,.02,.65,.02,.98,0,0,.07,0,.07,0Z"/>
  <path class="cls-2" d="M102.21,49.77c-2.25,0-2.43-.26-1.2-2.2,1-1.57,2.18-3.02,3.79-4.05,.28-.18,.53-.48,.86-.18,.47,.44-.04,.68-.27,.92-1.03,1.07-2.13,2.08-3.11,3.2-.46,.52-.99,1.31,.46,1.33,.55,0,1.46-.23,1.39,.63-.05,.66-.92,.25-1.42,.35-.16,.03-.33,0-.49,0h-.01Z"/>
  <path class="cls-1" d="M39.22,48.42c0,.45,0,.98-.61,.97-.86-.02-1.76,.85-2.5,.12-.48-.47,.13-.71,.6-.74,1.7-.13,1.61-.86,.74-1.99-.77-1-1.43-2.07-2.34-2.96-.22-.21-.57-.44-.2-.81,.17-.17,.37-.16,.6-.06,1,.41,3.74,4.44,3.71,5.47Z"/>
  <path class="cls-3" d="M71.95,75.33c-1.32,.07-2.48-.23-3.59-.73-.3-.13-.84-.2-.58-.78,.29-.66,.71-.27,1.09-.11,1.85,.78,3.69,1.02,5.54,0,.29-.16,.64-.33,.86,.06,.26,.45-.09,.75-.4,.95-.91,.58-1.94,.71-2.92,.62h0Z"/>
  <path class="cls-13" d="M90.42,40.8c-.68-.35-1.36-.69-2.04-1.04-.26-.61-1.02-.7-1.33-1.25-2.97-1.95-6.21-.73-9.4-.68,1.21-2.67,4.78-3.96,6.66-3.19,2.44,1,4.47,2.64,6.22,4.58,.36,.4,1.18,1.15-.11,1.57h0Z"/>
  <path class="cls-13" d="M56.6,38.41c-1.15,.12-2.31,.23-3.46,.35,1.18-1.58,2.84-2.61,4.48-3.59,2.64-1.58,6.09-.4,7.96,2.63-3.03,.21-6.16-1.43-8.98,.61Z"/>
  <path class="cls-14" d="M87.05,38.51c.58,.28,1.34,.36,1.34,1.25-.56-.3-1.13-.61-1.69-.91,.12-.11,.24-.23,.36-.34h0Z"/>
  <path class="cls-7" d="M83.28,39.45c5.77,0,10.45,4.66,10.45,10.41s-4.68,10.47-10.4,10.51c-5.8,.04-10.56-4.73-10.54-10.53,.02-5.75,4.7-10.39,10.48-10.39,0,0,.01,0,.01,0Z"/>
  <path class="cls-7" d="M56.48,39.45c5.75,.04,10.37,4.76,10.33,10.56-.04,5.71-4.84,10.42-10.57,10.36-5.74-.06-10.46-4.81-10.35-10.56,.13-6.46,4.88-9.95,10.59-10.35h0Z"/>
  <path class="cls-16" d="M80.24,46.35c.14-1.04,.14-2.16,.82-3.11,.77-1.07,1.64-1.07,2.38-.02,1.05,1.49,1.05,4.85,0,6.34-.76,1.08-1.59,1.09-2.37,0-.68-.94-.7-2.07-.84-3.22h.01Z"/>
  <path class="cls-16" d="M61.35,46.36c-.11,1.16-.18,2.22-.78,3.13-.73,1.13-1.56,1.18-2.37,.16-1.11-1.4-1.12-5.04-.02-6.47,.79-1.02,1.66-.99,2.38,.12,.63,.97,.7,2.07,.79,3.06Z"/>
</svg>