<?xml version="1.0" encoding="UTF-8"?>
<svg id="Layer_1" data-name="Layer 1" xmlns="http://www.w3.org/2000/svg" viewBox="0 0 139.43 139.5">
  <defs>
    <style>
      .cls-1, .cls-2 {
        fill: #f3b29b;
      }

      .cls-3 {
        fill: #efe6e0;
      }

      .cls-4, .cls-5 {
        fill: #db7543;
      }

      .cls-6 {
        fill: #d9d9d9;
      }

      .cls-7 {
        fill: #140019;
      }

      .cls-8 {
        fill: #3f232f;
      }

      .cls-9 {
        fill: #3b2140;
      }

      .cls-2, .cls-5, .cls-10, .cls-11 {
        fill-rule: evenodd;
      }

      .cls-10 {
        fill: #ea9283;
      }

      .cls-11 {
        fill: #e99486;
      }
    </style>
  </defs>
  <path class="cls-4" d="M33.18,68c2.17-7.8,3-25.5,0-32.5l3.5-2.5c10,15.5,43.88,57.32,36.82,58.5-9,1.5-30.82,1.5-40.32-2.5-9.5-4-4.18-6,0-21Z"/>
  <path class="cls-5" d="M96,60h-3.3c-7,8.67-20.5,28.6-18.5,31,2.5,3,16.5,2,28,1,11.5-1,15-2.5,9-12-3.04-4.81-4.5-9.62-5.12-13.72l-.39-5.72c0-.19,0-.38,.01-.56h-.05l-2.15-31.5-7.5,5v26.5Z"/>
  <path class="cls-7" d="M7,120.5c-2.8,1.2-5.83,13.17-7,19H139c2-5.6-3.5-15-6.5-19l-46-19.5H52.5c-13.67,6-42.7,18.3-45.5,19.5Z"/>
  <path class="cls-1" d="M86.5,101c-2.4-2.4-3.17-13-3-17l-27.5-2c.8,6.8-1,16-3.5,19,21.2,14,31.5,6.67,34,0Z"/>
  <path class="cls-9" d="M55.5,93c1-5.5,.5-8.5,.5-11h27v3.5c-4.5,7.5-19.33,8-27.5,7.5Z"/>
  <path class="cls-2" d="M70.5,12c-15.7,0-28.14,13.27-27.12,28.94l.2,3.02-1.07-.96c-5.33-3-15.1-5.3-11.5,9.5,2.47,10.16,8.7,13.52,14.09,14.09,1.59,12.72,12.43,22.41,25.41,22.41s23.82-9.69,25.41-22.41c5.39-.57,11.62-3.92,14.09-14.09,3.6-14.8-6.17-12.5-11.5-9.5l-1.07,.96,.2-3.02c1.02-15.67-11.42-28.94-27.12-28.94Z"/>
  <path class="cls-11" d="M102.72,48.35c1.03-1.13,2.21-2.15,2.97-2.74l.61,.79c-.73,.57-1.86,1.55-2.85,2.63-.5,.54-.95,1.1-1.3,1.63-.19,.3-.35,.58-.47,.84h2.81v1h-4.11l.12-.6c.12-.59,.42-1.2,.81-1.79,.39-.59,.88-1.19,1.4-1.76Z"/>
  <path class="cls-11" d="M37.1,48.7c-.81-1.11-1.8-2.19-2.45-2.84l.71-.71c.68,.68,1.7,1.8,2.55,2.96,.43,.58,.82,1.18,1.11,1.74,.28,.55,.49,1.13,.49,1.65v.42l-3.42,.57-.16-.99,2.52-.42c-.06-.22-.17-.49-.32-.79-.25-.5-.61-1.05-1.02-1.61Z"/>
  <path class="cls-10" d="M71.36,78.06c-1.46-.15-2.8-.68-3.6-1.12l.49-.87c.7,.39,1.91,.86,3.22,1,1.31,.14,2.66-.07,3.72-.95l.64,.77c-1.34,1.12-2.99,1.33-4.46,1.18Z"/>
  <path class="cls-10" d="M71.71,73.22c-3.36,0-6.77-.91-8.9-1.76l.37-.93c2.04,.82,5.33,1.7,8.53,1.69,3.21,0,6.2-.9,7.87-3.5l.84,.54c-1.93,3.01-5.36,3.95-8.71,3.95Z"/>
  <path class="cls-10" d="M68.94,59.2c.23-2.46,.48-5.32,.56-7.23l1,.04c-.08,1.93-.33,4.82-.56,7.27-.08,.85-.16,1.65-.22,2.35-.03,.31-.06,.6-.08,.86-.04,.42-.07,.78-.1,1.04-.01,.13-.02,.24-.03,.32,0,.04,0,.07,0,.1v.02s.01,.03,.03,.05c.04,.06,.11,.14,.22,.23,.21,.18,.53,.36,.93,.45,.76,.18,1.83,.06,2.97-1.07l.71,.71c-1.37,1.37-2.79,1.6-3.91,1.34-.54-.13-1-.38-1.34-.66-.17-.14-.31-.29-.42-.45-.1-.15-.19-.35-.19-.58,0-.16,.06-.77,.14-1.59,.03-.26,.05-.55,.08-.86,.07-.69,.14-1.49,.22-2.34Z"/>
  <path class="cls-8" d="M61.5,49c0,2.21-.9,4-2,4s-2-1.79-2-4,.9-4,2-4,2,1.79,2,4Z"/>
  <path class="cls-8" d="M84.5,49c0,2.21-.9,4-2,4s-2-1.79-2-4,.9-4,2-4,2,1.79,2,4Z"/>
  <path class="cls-4" d="M86,37.88c-3.6-2.4-7.17,.67-8.5,2.5,.5,.5,3.2-.5,6-.5,3.5,0,8,4.5,8,3.5s-1-2.5-5.5-5.5Z"/>
  <path class="cls-4" d="M57.5,37.88c3.6-2.4,7.17,.67,8.5,2.5-.5,.5-3.2-.5-6-.5-3.5,0-8,4.5-8,3.5s1-2.5,5.5-5.5Z"/>
  <path class="cls-6" d="M72,119c0,1.11-.9,2-2,2s-2-.89-2-2,.9-2,2-2,2,.89,2,2Z"/>
  <path class="cls-6" d="M72,127c0,1.1-.9,2-2,2s-2-.9-2-2,.9-2,2-2,2,.89,2,2Z"/>
  <path class="cls-6" d="M72,135c0,1.1-.9,2-2,2s-2-.9-2-2,.9-2,2-2,2,.9,2,2Z"/>
  <path class="cls-7" d="M71.5,105.5c-1.2-.4-2.5-.17-3,0l-3.5,3,5,3.5,5-2c-.67-1.33-2.3-4.1-3.5-4.5Z"/>
  <path class="cls-5" d="M97.9,46.18c3.6-3.99,8.61-13.83,3.6-25.18-5.01-11.35-14.28-15.18-17.96-15.18-.61-1.77-2.8-4.97-6.63-3.55-2.73,1.01-4.5,.15-6.41-.78-1.44-.7-2.95-1.44-5.01-1.44-.38,0-.82-.01-1.33-.02-5.91-.15-19.99-.49-28.13,14.22-.49,.88-.92,1.75-1.31,2.62-3.97,7.56-7.18,16.59-6.73,25.63,.23,4.63,1.86,9.48,3.34,13.89,1.72,5.12,3.25,9.66,2.17,12.61-1.6,4.4,7,.83,11.5-1.5-.05-1.42-.33-3-.62-4.66-.71-3.99-1.5-8.46,.62-12.34,.03-.06,.06-.14,.08-.24,.64-1.02,1.23-3.08,1.89-6.76,.94-5.17,3.97-5.93,7.08-6.71,2.66-.67,5.38-1.35,6.91-4.82,1.61-3.65,3.55-5.75,4.87-7.16,.85-.92,1.44-1.55,1.49-2.13,2.21,1.48,7.58,3.9,11.41,1.77,4.79-2.66,11.04-3.55,13.62,2.66,2.18,5.24,2.78,10.49,3.13,13.59,.07,.57,.12,1.07,.18,1.48,.37,2.66,1.1,3.99,2.21,3.99Z"/>
  <path class="cls-3" d="M89.31,113.65c-7.41,6.84-15.96-2.85-19.31-8.55,9.88,1.24,13.42-6.22,14.45-10.1,4.55,.5,14.13,10.1,4.86,18.65Z"/>
  <path class="cls-3" d="M50.69,113.65c7.41,6.84,15.96-2.85,19.31-8.55-9.89,1.24-13.97-6.22-15-10.1-2.32,1.55-13.57,10.1-4.31,18.65Z"/>
</svg>